<?xml version="1.0" encoding="utf-8"?>
<!-- Generator: Adobe Illustrator 20.1.0, SVG Export Plug-In . SVG Version: 6.00 Build 0)  -->
<svg version="1.1" id="Layer_1" xmlns="http://www.w3.org/2000/svg" xmlns:xlink="http://www.w3.org/1999/xlink" x="0px" y="0px"
	 viewBox="0 0 501 398" style="enable-background:new 0 0 501 398;" xml:space="preserve">
<style type="text/css">
	.st0{fill:#FFFFFF;}
	.st1{clip-path:url(#SVGID_2_);}
	.st2{fill:none;stroke:#E7EBEF;stroke-width:6;}
	.st3{clip-path:url(#SVGID_4_);fill:#E7EBEF;}
	.st4{clip-path:url(#SVGID_6_);}
	.st5{fill:#FB5153;}
	.st6{fill:#FBAD51;}
	.st7{fill:#65B34D;}
</style>
<g>
	<g>
		<path id="symbol0" class="st0" d="M5,0h491c2.8,0,5,2.2,5,5v388c0,2.8-2.2,5-5,5H5c-2.8,0-5-2.2-5-5V5C0,2.2,2.2,0,5,0z"/>
	</g>
	<g>
		<defs>
			<path id="SVGID_1_" d="M5,0h491c2.8,0,5,2.2,5,5v388c0,2.8-2.2,5-5,5H5c-2.8,0-5-2.2-5-5V5C0,2.2,2.2,0,5,0z"/>
		</defs>
		<clipPath id="SVGID_2_">
			<use xlink:href="#SVGID_1_"  style="overflow:visible;"/>
		</clipPath>
		<g class="st1">
			<path id="symbol0_1_" class="st2" d="M5,0h491c2.8,0,5,2.2,5,5v388c0,2.8-2.2,5-5,5H5c-2.8,0-5-2.2-5-5V5C0,2.2,2.2,0,5,0z"/>
		</g>
	</g>
</g>
<g>
	<g>
		<g>
			<path id="symbol1" class="st0" d="M5,0h491c2.8,0,5,2.2,5,5v388c0,2.8-2.2,5-5,5H5c-2.8,0-5-2.2-5-5V5C0,2.2,2.2,0,5,0z"/>
		</g>
		<g>
			<defs>
				<path id="SVGID_3_" d="M5,0h491c2.8,0,5,2.2,5,5v388c0,2.8-2.2,5-5,5H5c-2.8,0-5-2.2-5-5V5C0,2.2,2.2,0,5,0z"/>
			</defs>
			<clipPath id="SVGID_4_">
				<use xlink:href="#SVGID_3_"  style="overflow:visible;"/>
			</clipPath>
			<rect x="-9" y="-2" class="st3" width="668" height="57"/>
		</g>
	</g>
	<g>
		<defs>
			<path id="SVGID_5_" d="M5,0h491c2.8,0,5,2.2,5,5v388c0,2.8-2.2,5-5,5H5c-2.8,0-5-2.2-5-5V5C0,2.2,2.2,0,5,0z"/>
		</defs>
		<clipPath id="SVGID_6_">
			<use xlink:href="#SVGID_5_"  style="overflow:visible;"/>
		</clipPath>
		<g class="st4">
			<path id="symbol1_1_" class="st2" d="M5,0h491c2.8,0,5,2.2,5,5v388c0,2.8-2.2,5-5,5H5c-2.8,0-5-2.2-5-5V5C0,2.2,2.2,0,5,0z"/>
		</g>
	</g>
</g>
<ellipse class="st5" cx="25" cy="26.5" rx="7" ry="6.5"/>
<circle class="st6" cx="49.5" cy="26.5" r="6.5"/>
<ellipse class="st7" cx="74" cy="26.5" rx="7" ry="6.5"/>
<path class="st0" d="M433,42.7H108.4c-2.7,0-4.9-2.2-4.9-4.9v-1.6V18.2v-1.6c0-2.7,2.2-4.9,4.9-4.9H433c2.7,0,4.9,2.2,4.9,4.9v1.6
	v17.9v1.6C437.9,40.5,435.7,42.7,433,42.7z"/>
<g>
	<path class="st0" d="M457.9,33.9h19.3c1,0,1.9,0.9,1.9,2.1s-0.9,2.1-1.9,2.1h-19.3c-1,0-1.9-0.9-1.9-2.1S456.8,33.9,457.9,33.9z"/>
	<path class="st0" d="M457.9,26h19.3c1,0,1.9,0.9,1.9,2c0,1.1-0.9,2-1.9,2h-19.3c-1,0-1.9-0.9-1.9-2C456,26.8,456.8,26,457.9,26z"/>
	<path class="st0" d="M457.9,18h19.3c1,0,1.9,0.9,1.9,2c0,1.1-0.9,2-1.9,2h-19.3c-1,0-1.9-0.9-1.9-2C456,18.9,456.8,18,457.9,18z"/>
</g>
</svg>
